<svg xmlns="http://www.w3.org/2000/svg" viewBox="0 0 727.22 78"><defs><style>.cls-1{fill:#0065b2;}.cls-2{fill:#6db22d;}.cls-3{fill:#fff;}.cls-4,.cls-5{fill:#034ea2;}.cls-5,.cls-6{fill-rule:evenodd;}.cls-6{fill:#6bb745;}</style></defs><title>header_logo_18</title><g id="Layer_2" data-name="Layer 2"><g id="Laag_1" data-name="Laag 1"><rect class="cls-1" width="450.4" height="78"/><rect class="cls-2" x="451.83" width="21.06" height="78"/><path class="cls-3" d="M49.62,57.06a52.38,52.38,0,0,1-9.86,1.1c-10.85,0-13.21-6.76-13.21-18.61S28.7,20.68,39.76,20.68a53.22,53.22,0,0,1,9.86,1.1l-.16,2.83a61.88,61.88,0,0,0-9.43-1c-8.81,0-10.12,5.56-10.12,15.94s1.36,15.68,10.17,15.68a57.39,57.39,0,0,0,9.38-1Z"/><path class="cls-3" d="M56.07,19.78h3.1V57.64h-3.1Z"/><path class="cls-3" d="M67.35,20.94h3.09v3.93H67.35Zm0,10.48h3.09V57.64H67.35Z"/><path class="cls-3" d="M78.31,57.64V31.42H81.4v1.94a17.72,17.72,0,0,1,8-2.46c3.62,0,5.56.84,6.87,2.78a21,21,0,0,1,9.44-2.78c7.13,0,8.75,3.25,8.75,13V57.64h-3.09V44c0-7.71-.84-10.28-6-10.28a17.38,17.38,0,0,0-8,2.2c.58,1.47.79,4.62.79,8.08V57.64H95V44.11c0-7.86-.84-10.38-6-10.38a16.4,16.4,0,0,0-7.65,2.2V57.64Z"/><path class="cls-3" d="M140.13,53.29c.15,1.57,1.67,2.09,3.4,2.3l-.15,2.52c-2.57,0-4.51-.52-5.93-2.1a28.42,28.42,0,0,1-9.85,2.15c-4.62,0-7.19-2.67-7.19-7.91,0-4.83,2.41-7.13,7.71-7.66L137,41.7V39.24c0-4-1.78-5.51-5.14-5.51-3.77,0-9.9.79-9.9.79L121.83,32A66.24,66.24,0,0,1,132,30.9c5.71,0,8.13,2.78,8.13,8.34Zm-11.64-8.23c-3.52.31-4.83,2-4.83,5.13,0,3.36,1.47,5.3,4.35,5.3a29.63,29.63,0,0,0,9-1.84V44.16Z"/><path class="cls-3" d="M152.76,34.2V47.15c0,6.56.42,8.23,4.2,8.23,1.47,0,4.82-.36,4.82-.36l.21,2.67a48.28,48.28,0,0,1-5.29.53c-5.19,0-7.08-1.94-7.08-9.49V34.2h-3.88V31.42h3.88V23.19h3.14v8.23h8.76V34.2Z"/><path class="cls-3" d="M185.38,54.86l.1,2.57s-5.92.73-10,.73c-7.81,0-10.17-4.77-10.17-13.52,0-10.12,4.4-13.74,10.8-13.74,6.76,0,10.33,3.62,10.33,12.43l-.11,2.51H168.5c0,6.19,1.78,9.49,7.28,9.49C179.61,55.33,185.38,54.86,185.38,54.86Zm-2.1-11.64c0-7.08-2.25-9.59-7.18-9.59-4.77,0-7.6,2.62-7.6,9.59Z"/><path class="cls-3" d="M193.51,57.64V21.2h3.25V54.7h16.67v2.94Z"/><path class="cls-3" d="M236.08,53.29c.16,1.57,1.68,2.09,3.41,2.3l-.16,2.52c-2.56,0-4.5-.52-5.92-2.1a28.43,28.43,0,0,1-9.86,2.15c-4.61,0-7.18-2.67-7.18-7.91,0-4.83,2.41-7.13,7.71-7.66L233,41.7V39.24c0-4-1.78-5.51-5.14-5.51-3.77,0-9.91.79-9.91.79L217.79,32A66.06,66.06,0,0,1,228,30.9c5.71,0,8.12,2.78,8.12,8.34Zm-11.64-8.23c-3.51.31-4.82,2-4.82,5.13,0,3.36,1.47,5.3,4.35,5.3a29.63,29.63,0,0,0,9-1.84V44.16Z"/><path class="cls-3" d="M263.87,31.42V57.64h-3.09V55.7a18.1,18.1,0,0,1-8.07,2.46c-7.29,0-8.76-3.25-8.76-13V31.42H247V45.06c0,7.81.79,10.27,6,10.27a16.48,16.48,0,0,0,7.71-2.2V31.42Z"/><path class="cls-3" d="M271.74,57.64V31.42h3.1v1.94s4.4-2.46,8.54-2.46c7.18,0,8.76,3.36,8.76,13V57.64H289V44c0-7.71-.84-10.28-6.08-10.28a19.22,19.22,0,0,0-8.07,2.2V57.64Z"/><path class="cls-3" d="M316.26,31.58l-.16,2.68s-4.14-.53-6.13-.53c-6.29,0-8.13,2.78-8.13,10.33,0,8.23,1.26,11.27,8.13,11.27,2,0,6.24-.47,6.24-.47l.1,2.67s-4.67.63-6.92.63c-8.49,0-10.8-3.77-10.8-14.1,0-9.6,3-13.16,10.85-13.16A65.65,65.65,0,0,1,316.26,31.58Z"/><path class="cls-3" d="M322.4,57.64V19.78h3.09V32.94a23.72,23.72,0,0,1,8.49-2c7.19,0,8.76,3.36,8.76,13V57.64h-3.15V44c0-7.71-.84-10.28-6-10.28a22.66,22.66,0,0,0-8.07,1.78V57.64Z"/><path class="cls-3" d="M350.34,31.42h3.1v2a18.29,18.29,0,0,1,8.28-2.52c6.55,0,9.33,4.14,9.33,13.26,0,10.12-3.2,14-11.32,14a33,33,0,0,1-6.29-.68v12h-3.1Zm3.1,4.67V54.76a39.88,39.88,0,0,0,6.18.62c6.08,0,8.18-3.14,8.18-11.22,0-7.65-2.31-10.43-6.39-10.43A18.46,18.46,0,0,0,353.44,36.09Z"/><path class="cls-3" d="M395.8,53.29c.16,1.57,1.68,2.09,3.41,2.3l-.16,2.52c-2.57,0-4.51-.52-5.92-2.1a28.43,28.43,0,0,1-9.86,2.15c-4.61,0-7.18-2.67-7.18-7.91,0-4.83,2.41-7.13,7.71-7.66l8.91-.89V39.24c0-4-1.78-5.51-5.14-5.51-3.77,0-9.91.79-9.91.79L377.5,32a66.27,66.27,0,0,1,10.18-1.1c5.71,0,8.12,2.78,8.12,8.34Zm-11.64-8.23c-3.51.31-4.82,2-4.82,5.13,0,3.36,1.47,5.3,4.35,5.3a29.63,29.63,0,0,0,9-1.84V44.16Z"/><path class="cls-3" d="M423.54,57.64h-3.15V55.7A19,19,0,0,1,412,58.16c-4.41,0-9.23-1.47-9.23-13.31,0-9.18,2.78-14,11-14a48.82,48.82,0,0,1,6.6.68V19.78h3.15Zm-3.15-4.56V34.31a53.63,53.63,0,0,0-6.5-.63c-6.24,0-7.86,4-7.86,11.17,0,9.28,3.25,10.48,6.29,10.48A19.5,19.5,0,0,0,420.39,53.08Z"/><rect class="cls-4" x="570.8" y="19.43" width="1.63" height="1.63"/><rect class="cls-4" x="570.8" y="22.64" width="1.63" height="12.81"/><path class="cls-5" d="M575.6,19.43h1.62v3.21h6.39v1.59h-6.39v8a1.61,1.61,0,0,0,1.59,1.63h4.8v1.58h-4.8a3.21,3.21,0,0,1-3.21-3.21v-8h-2.4V22.64h2.4Z"/><path class="cls-4" d="M567.38,27.44h-10.7a3.09,3.09,0,0,1,.9-2.44,2.93,2.93,0,0,1,1.54-.65,13.77,13.77,0,0,1,2.93-.2,14.23,14.23,0,0,1,2.93.2,3.16,3.16,0,0,1,1.55.65A3,3,0,0,1,567.38,27.44Zm-10.7,1.63h12.53a15.4,15.4,0,0,0-.24-3.18,4.83,4.83,0,0,0-.86-1.83,3.84,3.84,0,0,0-2-1.26,19,19,0,0,0-4.07-.32,19.51,19.51,0,0,0-4.11.32,3.58,3.58,0,0,0-2,1.26,3.77,3.77,0,0,0-.85,1.83,16.91,16.91,0,0,0-.29,3.18,16.65,16.65,0,0,0,.29,3.13,3.77,3.77,0,0,0,.85,1.83,3.53,3.53,0,0,0,2,1.26,17,17,0,0,0,4.11.33,16.55,16.55,0,0,0,4.07-.33,3.78,3.78,0,0,0,2-1.26,4.73,4.73,0,0,0,.74-1.38h-1.92a4.24,4.24,0,0,1-.4.48,3.7,3.7,0,0,1-1.55.66,18.66,18.66,0,0,1-2.93.16,18,18,0,0,1-2.93-.16,3.39,3.39,0,0,1-1.54-.66,2.83,2.83,0,0,1-.86-2C556.68,30.45,556.68,29.72,556.68,29.07Z"/><path class="cls-5" d="M569.21,57.87a28.82,28.82,0,1,0,0-57.64,28.35,28.35,0,0,0-14.4,3.86l1.59,2.77a25.29,25.29,0,0,1,12.81-3.42,25.63,25.63,0,1,1-25.63,25.63h-3.21A28.84,28.84,0,0,0,569.21,57.87Z"/><path class="cls-6" d="M569.21,51.48a22.36,22.36,0,0,0,19.4-11.23l-2.76-1.58a19.22,19.22,0,1,1,0-19.24l2.76-1.59a22.41,22.41,0,1,0-19.4,33.64Z"/><path class="cls-4" d="M619.07,31.08h1.66a16.79,16.79,0,0,1-.2,2.4,2.19,2.19,0,0,1-1.91,1.75,26.11,26.11,0,0,1-4.6.27,36.14,36.14,0,0,1-5.81-.3,2.48,2.48,0,0,1-1.93-1.51,13.3,13.3,0,0,1-.5-4.43,18.72,18.72,0,0,1,.38-4.45,2.54,2.54,0,0,1,2.32-1.92,38.39,38.39,0,0,1,5.28-.27,23.82,23.82,0,0,1,4.75.33,2.65,2.65,0,0,1,1.24.62,2.13,2.13,0,0,1,.66,1.08,12.92,12.92,0,0,1,.16,2.24H619c0-.22,0-.37,0-.44a3.38,3.38,0,0,0-.18-1.31,1.22,1.22,0,0,0-.69-.6,15.52,15.52,0,0,0-4.43-.38c-1.68,0-2.94,0-3.79.13a3.78,3.78,0,0,0-1.65.44,2.14,2.14,0,0,0-.54,1.24,15.74,15.74,0,0,0-.17,2.61c0,.52,0,1.2.06,2s.09,1.4.14,1.72a1.7,1.7,0,0,0,.47,1.07,2,2,0,0,0,1.17.41c1,.1,2.35.15,4.15.15.55,0,1.27,0,2.16-.05s1.46-.07,1.71-.1a3,3,0,0,0,1.06-.29,1,1,0,0,0,.47-.57A7.76,7.76,0,0,0,619.07,31.08Z"/><path class="cls-4" d="M622.5,22.66h1.41v12.8H622.5Z"/><path class="cls-4" d="M625.77,22.66h1.41v1.67h-1.41Zm0,3.9h1.41v8.9h-1.41Z"/><path class="cls-4" d="M629.26,26.56h1.42v1.17a3.16,3.16,0,0,1,1.34-1,7.67,7.67,0,0,1,2.3-.24,10.62,10.62,0,0,1,3.14.32A2.62,2.62,0,0,1,638.94,28a2.39,2.39,0,0,1,1.33-1.21,8.8,8.8,0,0,1,2.81-.33,12.11,12.11,0,0,1,2.73.23,3,3,0,0,1,1.47.85,2.42,2.42,0,0,1,.56,1.09,11.61,11.61,0,0,1,.13,2.16v4.68h-1.41v-5a3.19,3.19,0,0,0-.48-2.12c-.44-.43-1.44-.65-3-.65a8.77,8.77,0,0,0-2,.18,2,2,0,0,0-1.07.6,2.49,2.49,0,0,0-.5,1.15,15.62,15.62,0,0,0-.13,2.34v3.51h-1.4v-5a6.69,6.69,0,0,0-.11-1.4,1.36,1.36,0,0,0-.38-.71c-.46-.44-1.47-.66-3-.66a9.05,9.05,0,0,0-2.08.19,2.18,2.18,0,0,0-1.12.62,2.11,2.11,0,0,0-.45,1.05,18.59,18.59,0,0,0-.1,2.41v3.51h-1.41Z"/><path class="cls-4" d="M651,29.23h-1.46c0-.16,0-.29,0-.38a1.93,1.93,0,0,1,1-1.91,10.46,10.46,0,0,1,3.94-.5,18.87,18.87,0,0,1,3.26.2,2.93,2.93,0,0,1,1.56.79,2.18,2.18,0,0,1,.61,1.11,12.26,12.26,0,0,1,.14,2.23v4.69h-1.4l0-1h-.07a2.35,2.35,0,0,1-1.27.94,11.94,11.94,0,0,1-2.78.21,29.75,29.75,0,0,1-3.24-.11A2.76,2.76,0,0,1,650,35a1.74,1.74,0,0,1-.65-.81,3.74,3.74,0,0,1-.19-1.31,3.66,3.66,0,0,1,.28-1.58,1.77,1.77,0,0,1,.93-.83,10.63,10.63,0,0,1,3.33-.31,23.7,23.7,0,0,1,3.59.17,2,2,0,0,1,1.3.79h.12v-1a2.7,2.7,0,0,0-.42-1.69,2,2,0,0,0-1.14-.62,13.35,13.35,0,0,0-2.5-.16,10,10,0,0,0-3,.26,1.12,1.12,0,0,0-.67,1.17Zm3.6,2.17q-1.73,0-2.43.06a2.54,2.54,0,0,0-1,.23,1.28,1.28,0,0,0-.55,1.21,1.17,1.17,0,0,0,.65,1.18,13.43,13.43,0,0,0,3.6.25,9.39,9.39,0,0,0,3-.29,1.28,1.28,0,0,0-.09-2.34A10.79,10.79,0,0,0,654.58,31.4Z"/><path class="cls-4" d="M662.69,24.36h1.41v2.2h6.23v1.2H664.1v3.86c0,.85,0,1.36.06,1.55a1.29,1.29,0,0,0,.28.56,1.39,1.39,0,0,0,.78.47,6.7,6.7,0,0,0,1.54.13,5.13,5.13,0,0,0,1.38-.13,1.19,1.19,0,0,0,.68-.48,1.59,1.59,0,0,0,.21-.58,9.44,9.44,0,0,0,.05-1.14v-.56h1.4V32a9.68,9.68,0,0,1-.1,1.55,2.49,2.49,0,0,1-.37.93,2.21,2.21,0,0,1-1.18.84,7.27,7.27,0,0,1-2.18.25,8.85,8.85,0,0,1-2.26-.23,2.17,2.17,0,0,1-1.2-.77,2.21,2.21,0,0,1-.4-.91,9.7,9.7,0,0,1-.1-1.57V27.76h-2.18v-1.2h2.18Z"/><path class="cls-4" d="M681.37,32.71h1.48a2.43,2.43,0,0,1-1.13,2.23,8.12,8.12,0,0,1-3.79.63,25.69,25.69,0,0,1-3.39-.17,4.2,4.2,0,0,1-1.75-.59q-1.35-.95-1.35-3.78a6.1,6.1,0,0,1,.57-3,2.75,2.75,0,0,1,1.58-1.28,12.38,12.38,0,0,1,3.42-.33,16.11,16.11,0,0,1,3.32.24,3.09,3.09,0,0,1,1.64.94,3.34,3.34,0,0,1,.69,1.35,12.12,12.12,0,0,1,.21,2.34H673a3.47,3.47,0,0,0,.66,2.28,2.28,2.28,0,0,0,1.29.58,19.34,19.34,0,0,0,2.88.15,12,12,0,0,0,2.22-.14,1.92,1.92,0,0,0,1-.51A1.73,1.73,0,0,0,681.37,32.71Zm-.06-2.59a2.17,2.17,0,0,0-.7-1.82,2.82,2.82,0,0,0-1.26-.48,15.39,15.39,0,0,0-2.37-.14,13.33,13.33,0,0,0-2.09.13A2.09,2.09,0,0,0,673,30.12Z"/><path class="cls-4" d="M683.86,30.09h7.53v1.66h-7.53Z"/><path class="cls-4" d="M692.35,22.66h1.71v5.5h2.22l8.3-5.5h3l-9.52,6.24,10,6.56h-3l-8.77-5.8h-2.22v5.8h-1.71Z"/><path class="cls-4" d="M708.9,22.66h1.71v12.8H708.9Z"/><path class="cls-4" d="M725.56,31.08h1.66a15,15,0,0,1-.21,2.4,2.18,2.18,0,0,1-1.9,1.75,26.18,26.18,0,0,1-4.6.27,36.06,36.06,0,0,1-5.81-.3,2.46,2.46,0,0,1-1.93-1.51,13.3,13.3,0,0,1-.5-4.43,18.72,18.72,0,0,1,.38-4.45A2.54,2.54,0,0,1,715,22.89a38.39,38.39,0,0,1,5.28-.27A23.87,23.87,0,0,1,725,23a2.66,2.66,0,0,1,1.23.62,2,2,0,0,1,.66,1.08,11.12,11.12,0,0,1,.16,2.24h-1.58c0-.22,0-.37,0-.44a3.38,3.38,0,0,0-.18-1.31,1.22,1.22,0,0,0-.69-.6,15.56,15.56,0,0,0-4.43-.38c-1.68,0-2.95,0-3.79.13a3.78,3.78,0,0,0-1.65.44,2,2,0,0,0-.54,1.24,14.71,14.71,0,0,0-.17,2.61c0,.52,0,1.2.06,2s.09,1.4.13,1.72a1.7,1.7,0,0,0,.48,1.07,2,2,0,0,0,1.16.41c1,.1,2.36.15,4.16.15.55,0,1.27,0,2.16-.05s1.46-.07,1.7-.1a3,3,0,0,0,1.06-.29,1,1,0,0,0,.48-.57A8.36,8.36,0,0,0,725.56,31.08Z"/></g></g></svg>